<svg width="64" height="64" viewBox="0 0 64 64" fill="none" xmlns="http://www.w3.org/2000/svg">
<path d="M12.6197 55.2435C16.389 55.2435 19.4447 52.1878 19.4447 48.4185C19.4447 44.6492 16.389 41.5936 12.6197 41.5936C8.8504 41.5936 5.79477 44.6492 5.79477 48.4185C5.79477 52.1878 8.8504 55.2435 12.6197 55.2435Z" fill="#FBBC04"/>
<path d="M56.5312 49.1911C59.8027 49.1911 62.4547 46.5391 62.4547 43.2676C62.4547 39.9961 59.8027 37.3441 56.5312 37.3441C53.2597 37.3441 50.6076 39.9961 50.6076 43.2676C50.6076 46.5391 53.2597 49.1911 56.5312 49.1911Z" fill="#0F9D58"/>
<path d="M51.1227 19.3159C53.8253 19.3159 56.0161 17.1251 56.0161 14.4225C56.0161 11.72 53.8253 9.52917 51.1227 9.52917C48.4202 9.52917 46.2294 11.72 46.2294 14.4225C46.2294 17.1251 48.4202 19.3159 51.1227 19.3159Z" fill="#4285F4"/>
<path d="M7.24282 38.5839C11.2429 38.5839 14.4856 35.4202 14.4856 31.5176C14.4856 27.615 11.2429 24.4514 7.24282 24.4514C3.24273 24.4514 7.62939e-06 27.615 7.62939e-06 31.5176C7.62939e-06 35.4202 3.24273 38.5839 7.24282 38.5839Z" fill="#0F9D58"/>
<path d="M28.0494 64C31.6859 64 34.6338 61.1274 34.6338 57.5839C34.6338 54.0404 31.6859 51.1678 28.0494 51.1678C24.4129 51.1678 21.465 54.0404 21.465 57.5839C21.465 61.1274 24.4129 64 28.0494 64Z" fill="#EA4335"/>
<path d="M44.9711 61.1889C48.4258 61.1889 51.2263 58.4621 51.2263 55.0983C51.2263 51.7346 48.4258 49.0078 44.9711 49.0078C41.5165 49.0078 38.716 51.7346 38.716 55.0983C38.716 58.4621 41.5165 61.1889 44.9711 61.1889Z" fill="#4285F4"/>
<path d="M15.0782 22.1735C19.2601 22.1735 22.6502 18.8643 22.6502 14.7823C22.6502 10.7003 19.2601 7.39116 15.0782 7.39116C10.8964 7.39116 7.50629 10.7003 7.50629 14.7823C7.50629 18.8643 10.8964 22.1735 15.0782 22.1735Z" fill="#4285F4"/>
<path d="M58.4033 33.3692C61.4943 33.3692 64 30.91 64 27.8763C64 24.8427 61.4943 22.3834 58.4033 22.3834C55.3123 22.3834 52.8066 24.8427 52.8066 27.8763C52.8066 30.91 55.3123 33.3692 58.4033 33.3692Z" fill="#FBBC04"/>
<path d="M33.8672 15.9678C38.2766 15.9678 41.8511 12.3933 41.8511 7.98392C41.8511 3.57453 38.2766 1.52588e-05 33.8672 1.52588e-05C29.4578 1.52588e-05 25.8833 3.57453 25.8833 7.98392C25.8833 12.3933 29.4578 15.9678 33.8672 15.9678Z" fill="#EA4335"/>
</svg>
